<?xml version="1.0" standalone="no"?>
<!DOCTYPE svg PUBLIC "-//W3C//DTD SVG 20010904//EN"
 "http://www.w3.org/TR/2001/REC-SVG-20010904/DTD/svg10.dtd">
<svg version="1.0" xmlns="http://www.w3.org/2000/svg"
 width="700.000000pt" height="700.000000pt" viewBox="0 0 700.000000 700.000000"
 preserveAspectRatio="xMidYMid meet">
<metadata>
Created by potrace 1.11, written by Peter Selinger 2001-2013
</metadata>
<g transform="translate(0.000000,700.000000) scale(0.100000,-0.100000)"
fill="#000000" stroke="none">
<path d="M3499 6256 c-2 -2 -69 -6 -149 -10 -80 -3 -156 -8 -170 -10 -14 -3
-60 -10 -103 -16 -101 -15 -125 -19 -162 -27 -16 -4 -34 -8 -40 -9 -5 -1 -55
-14 -110 -29 -493 -134 -905 -373 -1265 -734 -295 -296 -508 -623 -649 -998
-17 -46 -38 -102 -46 -125 -15 -46 -72 -261 -80 -306 -3 -15 -7 -38 -10 -52
-9 -44 -34 -232 -40 -305 -6 -82 -7 -357 0 -430 53 -593 253 -1099 616 -1557
73 -91 289 -316 361 -375 271 -221 482 -350 783 -478 162 -68 417 -139 610
-169 55 -9 118 -18 140 -22 64 -10 514 -13 585 -4 36 5 85 11 110 14 25 3 54
7 65 10 11 2 40 7 65 11 64 11 64 11 180 40 58 14 112 28 120 30 8 2 62 20
120 40 282 98 552 245 795 430 112 85 153 122 285 255 153 153 220 234 342
415 61 90 198 325 198 339 0 3 15 37 34 78 112 243 184 505 231 838 11 76 14
510 5 597 -9 76 -41 274 -54 333 -4 14 -9 39 -12 55 -2 17 -9 44 -14 60 -5 17
-23 75 -40 130 -99 319 -255 613 -481 905 -74 96 -331 360 -403 415 -22 17
-53 42 -70 56 -40 33 -195 143 -233 164 -15 8 -50 30 -78 47 -44 27 -281 151
-295 154 -3 0 -16 5 -30 11 -226 96 -511 175 -722 199 -29 3 -80 9 -113 14
-33 4 -105 8 -159 9 -55 1 -103 4 -107 6 -3 3 -8 3 -10 1z"/>
</g>
</svg>
