<?xml version="1.0" encoding="iso-8859-1"?>
<!-- Generator: Adobe Illustrator 19.0.0, SVG Export Plug-In . SVG Version: 6.00 Build 0)  -->
<svg version="1.1" id="Capa_1" xmlns="http://www.w3.org/2000/svg" xmlns:xlink="http://www.w3.org/1999/xlink" x="0px" y="0px"
	 viewBox="0 0 512 512" style="enable-background:new 0 0 512 512;" xml:space="preserve">
<g>
	<circle style="fill:#B0BEC5;" cx="112" cy="416" r="48"/>
	<circle style="fill:#B0BEC5;" cx="400" cy="416" r="48"/>
</g>
<path style="fill:#FFC107;" d="M112,48C50.144,48,0,98.144,0,160c0,57.6,89.856,159.264,100.096,170.688
	c5.904,6.574,16.02,7.118,22.595,1.213c0.426-0.382,0.831-0.787,1.213-1.213C134.144,319.264,224,217.6,224,160
	C224,98.144,173.856,48,112,48z"/>
<circle style="fill:#FAFAFA;" cx="112" cy="160" r="48"/>
<path style="fill:#FFD54F;" d="M400,48c-61.856,0-112,50.144-112,112c0,57.6,89.856,159.264,100.096,170.688
	c5.904,6.574,16.02,7.118,22.595,1.213c0.426-0.382,0.831-0.787,1.213-1.213C422.144,319.264,512,217.6,512,160
	C512,98.144,461.856,48,400,48z"/>
<circle style="fill:#FAFAFA;" cx="400" cy="160" r="48"/>
<path d="M112,336c-4.542-0.001-8.87-1.932-11.904-5.312C89.856,319.264,0,217.6,0,160C0,98.144,50.144,48,112,48s112,50.144,112,112
	c0,57.6-89.856,159.264-100.096,170.688C120.87,334.068,116.542,335.999,112,336z M112,80c-44.183,0-80,35.817-80,80
	c0,30.528,45.056,94.144,80,135.584c34.944-41.44,80-105.088,80-135.584C192,115.817,156.183,80,112,80z"/>
<path d="M112,208c-26.51,0-48-21.49-48-48s21.49-48,48-48s48,21.49,48,48S138.51,208,112,208z M112,144c-8.837,0-16,7.163-16,16
	s7.163,16,16,16s16-7.163,16-16S120.837,144,112,144z"/>
<path d="M400,336c-4.542-0.001-8.87-1.932-11.904-5.312C377.856,319.264,288,217.6,288,160c0-61.856,50.144-112,112-112
	s112,50.144,112,112c0,57.6-89.856,159.264-100.096,170.688C408.87,334.068,404.542,335.999,400,336z M400,80
	c-44.183,0-80,35.817-80,80c0,30.528,45.056,94.144,80,135.584c34.944-41.44,80-105.088,80-135.584C480,115.817,444.183,80,400,80z"
	/>
<path d="M400,208c-26.51,0-48-21.49-48-48s21.49-48,48-48s48,21.49,48,48S426.51,208,400,208z M400,144c-8.837,0-16,7.163-16,16
	s7.163,16,16,16s16-7.163,16-16S408.837,144,400,144z"/>
<path d="M112,464c-26.51,0-48-21.49-48-48s21.49-48,48-48s48,21.49,48,48S138.51,464,112,464z M112,400c-8.837,0-16,7.163-16,16
	s7.163,16,16,16s16-7.163,16-16S120.837,400,112,400z"/>
<path d="M400,464c-26.51,0-48-21.49-48-48s21.49-48,48-48s48,21.49,48,48S426.51,464,400,464z M400,400c-8.837,0-16,7.163-16,16
	s7.163,16,16,16s16-7.163,16-16S408.837,400,400,400z"/>
<rect x="144" y="400" width="224" height="32"/>
<g>
</g>
<g>
</g>
<g>
</g>
<g>
</g>
<g>
</g>
<g>
</g>
<g>
</g>
<g>
</g>
<g>
</g>
<g>
</g>
<g>
</g>
<g>
</g>
<g>
</g>
<g>
</g>
<g>
</g>
</svg>
