<?xml version="1.0" encoding="iso-8859-1"?>
<!-- Generator: Adobe Illustrator 19.0.0, SVG Export Plug-In . SVG Version: 6.00 Build 0)  -->
<svg version="1.1" id="Capa_1" xmlns="http://www.w3.org/2000/svg" xmlns:xlink="http://www.w3.org/1999/xlink" x="0px" y="0px"
	 viewBox="0 0 512 512" style="enable-background:new 0 0 512 512;" xml:space="preserve">
<rect x="61" y="361" style="fill:#B34F03;" width="30" height="90"/>
<rect x="76" y="361" style="fill:#913F02;" width="15" height="90"/>
<path style="fill:#A8D32A;" d="M106,286c-11.7,0-21.899,4.501-30,11.7c-8.101-7.2-18.3-11.7-30-11.7H0v45c0,24.901,21.099,45,46,45
	h30c15,0,30.3,0,30.3,0c24.901-0.3,44.7-20.099,44.7-45v-45H106z"/>
<path style="fill:#93BF00;" d="M151,286v45c0,24.901-19.799,44.7-44.7,45c0,0-15.3,0-30.3,0v-78.3c8.101-7.2,18.3-11.7,30-11.7H151z
	"/>
<rect x="241" y="361" style="fill:#B34F03;" width="30" height="90"/>
<rect x="256" y="361" style="fill:#913F02;" width="15" height="90"/>
<path style="fill:#A8D32A;" d="M286,286c-11.7,0-21.899,4.501-30,11.7c-8.101-7.2-18.3-11.7-30-11.7h-45v45
	c0,24.901,20.099,45,45,45h30c15,0,30.3,0,30.3,0c24.901-0.3,44.7-20.099,44.7-45v-45H286z"/>
<path style="fill:#93BF00;" d="M331,286v45c0,24.901-19.799,44.7-44.7,45c0,0-15.3,0-30.3,0v-78.3c8.101-7.2,18.3-11.7,30-11.7H331z
	"/>
<rect x="421" y="361" style="fill:#B34F03;" width="30" height="90"/>
<rect x="436" y="361" style="fill:#913F02;" width="15" height="90"/>
<path style="fill:#A8D32A;" d="M466,286c-11.7,0-21.899,4.501-30,11.7c-8.101-7.2-18.3-11.7-30-11.7h-45v45
	c0,24.901,20.099,45,45,45h30c15,0,30.3,0,30.3,0c24.901-0.3,45.7-20.099,45.7-45v-45H466z"/>
<path style="fill:#93BF00;" d="M512,286v45c0,24.901-20.799,44.7-45.7,45c0,0-15.3,0-30.3,0v-78.3c8.101-7.2,18.3-11.7,30-11.7H512z
	"/>
<rect y="436" style="fill:#B34F03;" width="512" height="30"/>
<rect x="256" y="436" style="fill:#913F02;" width="256" height="30"/>
<path style="fill:#68544F;" d="M181,61v30c0,24.901-20.099,45-45,45s-45-20.099-45-45V61H181z"/>
<g>
	<rect x="121" y="166" style="fill:#9ED0FF;" width="30" height="60"/>
	
		<rect x="61.004" y="135.998" transform="matrix(-0.7071 -0.7071 0.7071 -0.7071 12.3674 337.1128)" style="fill:#9ED0FF;" width="29.997" height="59.993"/>
</g>
<rect x="166.005" y="150.999" transform="matrix(-0.7071 -0.7071 0.7071 -0.7071 217.2186 421.9689)" style="fill:#73BCFF;" width="59.993" height="29.997"/>
<path style="fill:#53433F;" d="M181,61v30c0,24.901-20.099,45-45,45V61H181z"/>
<rect x="136" y="166" style="fill:#73BCFF;" width="15" height="60"/>
<path style="fill:#68544F;" d="M421,61v30c0,24.901-20.099,45-45,45s-45-20.099-45-45V61H421z"/>
<g>
	<rect x="361" y="166" style="fill:#9ED0FF;" width="30" height="60"/>
	
		<rect x="300.998" y="135.992" transform="matrix(-0.7071 -0.7071 0.7071 -0.7071 422.067 506.8039)" style="fill:#9ED0FF;" width="29.997" height="59.993"/>
</g>
<rect x="405.999" y="150.993" transform="matrix(-0.7071 -0.7071 0.7071 -0.7071 626.9183 591.66)" style="fill:#73BCFF;" width="59.993" height="29.997"/>
<path style="fill:#53433F;" d="M421,61v30c0,24.901-20.099,45-45,45V61H421z"/>
<rect x="376" y="166" style="fill:#73BCFF;" width="15" height="60"/>
<rect y="46" style="fill:#D3D3D8;" width="512" height="30"/>
<rect x="256" y="46" style="fill:#BABAC0;" width="256" height="30"/>
<g>
</g>
<g>
</g>
<g>
</g>
<g>
</g>
<g>
</g>
<g>
</g>
<g>
</g>
<g>
</g>
<g>
</g>
<g>
</g>
<g>
</g>
<g>
</g>
<g>
</g>
<g>
</g>
<g>
</g>
</svg>
