<svg height="512pt" viewBox="0 -56 512 512" width="512pt" xmlns="http://www.w3.org/2000/svg"><path d="m504 232v160h-40v-160zm0 0" fill="#e6e9ed"/><path d="m168 104h32v32h-32zm0 0" fill="#ccd1d9"/><path d="m168 104v32h-48c-8.800781 0-16-7.199219-16-16s7.199219-16 16-16zm0 0" fill="#f6bb42"/><path d="m464 360v32h-344c-61.839844 0-112-50.160156-112-112v-160c0 61.839844 50.160156 112 112 112h344zm0 0" fill="#ffce54"/><path d="m200 136v-32h-80c-8.800781 0-16 7.199219-16 16s7.199219 16 16 16zm128-32v128h-208c-61.839844 0-112-50.160156-112-112s50.160156-112 112-112h112c53.039062 0 96 42.960938 96 96zm0 0" fill="#f6bb42"/><path d="m120 144c-13.230469 0-24-10.769531-24-24s10.769531-24 24-24c4.425781 0 8 3.574219 8 8s-3.574219 8-8 8c-4.414062 0-8 3.585938-8 8s3.585938 8 8 8c4.425781 0 8 3.574219 8 8s-3.574219 8-8 8zm0 0"/><path d="m231.992188 144.007812c-4.425782 0-8-3.574218-8-8 0-4.421874 3.574218-8 8-8 13.230468 0 24-10.769531 24-24 0-13.230468-10.769532-24-24-24-4.425782 0-8-3.574218-8-8 0-4.421874 3.574218-8 8-8 22.054687 0 40 17.945313 40 40 0 22.054688-17.945313 40-40 40zm0 0"/><path d="m232 144h-112c-4.425781 0-8-3.574219-8-8s3.574219-8 8-8h112c4.425781 0 8 3.574219 8 8s-3.574219 8-8 8zm0 0"/><path d="m231.992188 80.007812-111.992188-.007812c-4.425781 0-8-3.585938-8-8 0-4.425781 3.585938-8 8-8l111.992188.007812c4.421874 0 8 3.585938 8 8 0 4.425782-3.585938 8-8 8zm0 0"/><path d="m200 112h-80c-4.425781 0-8-3.574219-8-8s3.574219-8 8-8h80c4.425781 0 8 3.574219 8 8s-3.574219 8-8 8zm0 0"/><path d="m200 144.007812c-4.425781 0-8-3.574218-8-8v-32.007812c0-4.425781 3.574219-8 8-8s8 3.574219 8 8v32.007812c0 4.425782-3.574219 8-8 8zm0 0"/><path d="m168 144.007812c-4.425781 0-8-3.574218-8-8v-32.007812c0-4.425781 3.574219-8 8-8s8 3.574219 8 8v32.007812c0 4.425782-3.574219 8-8 8zm0 0"/><path d="m120 176c-30.871094 0-56-25.128906-56-56s25.128906-56 56-56c4.425781 0 8 3.574219 8 8s-3.574219 8-8 8c-22.054688 0-40 17.945312-40 40s17.945312 40 40 40c4.425781 0 8 3.574219 8 8s-3.574219 8-8 8zm0 0"/><path d="m232 176h-112c-4.425781 0-8-3.574219-8-8s3.574219-8 8-8h112c4.425781 0 8 3.574219 8 8s-3.574219 8-8 8zm0 0"/><path d="m232 176c-4.425781 0-8-3.574219-8-8s3.574219-8 8-8c30.871094 0 56-25.128906 56-56s-25.128906-56-56-56c-4.425781 0-8-3.574219-8-8s3.574219-8 8-8c39.703125 0 72 32.296875 72 72s-32.296875 72-72 72zm0 0"/><path d="m232 208c-4.425781 0-8-3.574219-8-8s3.574219-8 8-8c48.519531 0 88-39.480469 88-88s-39.480469-88-88-88c-4.425781 0-8-3.574219-8-8s3.574219-8 8-8c57.34375 0 104 46.65625 104 104s-46.65625 104-104 104zm0 0"/><path d="m120 208c-48.519531 0-88-39.480469-88-88s39.480469-88 88-88c4.425781 0 8 3.574219 8 8s-3.574219 8-8 8c-39.703125 0-72 32.296875-72 72s32.296875 72 72 72c4.425781 0 8 3.574219 8 8s-3.574219 8-8 8zm0 0"/><path d="m120 240c-66.167969 0-120-53.832031-120-120s53.832031-120 120-120c4.425781 0 8 3.574219 8 8s-3.574219 8-8 8c-57.34375 0-104 46.65625-104 104s46.65625 104 104 104c4.425781 0 8 3.574219 8 8s-3.574219 8-8 8zm0 0"/><path d="m120 400c-66.167969 0-120-53.832031-120-120 0-4.425781 3.574219-8 8-8s8 3.574219 8 8c0 57.34375 46.65625 104 104 104 4.425781 0 8 3.574219 8 8s-3.574219 8-8 8zm0 0"/><path d="m232 48h-112c-4.425781 0-8-3.574219-8-8s3.574219-8 8-8h112c4.425781 0 8 3.574219 8 8s-3.574219 8-8 8zm0 0"/><path d="m232 208h-112c-4.425781 0-8-3.574219-8-8s3.574219-8 8-8h112c4.425781 0 8 3.574219 8 8s-3.574219 8-8 8zm0 0"/><path d="m232 16h-112c-4.425781 0-8-3.574219-8-8s3.574219-8 8-8h112c4.425781 0 8 3.574219 8 8s-3.574219 8-8 8zm0 0"/><path d="m504 240h-384c-4.425781 0-8-3.574219-8-8s3.574219-8 8-8h384c4.425781 0 8 3.574219 8 8s-3.574219 8-8 8zm0 0"/><path d="m8 288c-4.425781 0-8-3.574219-8-8v-160c0-4.425781 3.574219-8 8-8s8 3.574219 8 8v160c0 4.425781-3.574219 8-8 8zm0 0"/><path d="m328 240c-4.425781 0-8-3.574219-8-8v-128c0-4.425781 3.574219-8 8-8s8 3.574219 8 8v128c0 4.425781-3.574219 8-8 8zm0 0"/><path d="m504 400h-384c-4.425781 0-8-3.574219-8-8s3.574219-8 8-8h384c4.425781 0 8 3.574219 8 8s-3.574219 8-8 8zm0 0"/><path d="m504 400c-4.425781 0-8-3.574219-8-8v-160c0-4.425781 3.574219-8 8-8s8 3.574219 8 8v160c0 4.425781-3.574219 8-8 8zm0 0"/><path d="m464 400c-4.425781 0-8-3.574219-8-8v-160.007812c0-4.425782 3.574219-8 8-8s8 3.574218 8 8v160.007812c0 4.425781-3.574219 8-8 8zm0 0"/><path d="m464 272h-8c-4.425781 0-8-3.574219-8-8s3.574219-8 8-8h8c4.425781 0 8 3.574219 8 8s-3.574219 8-8 8zm0 0"/><path d="m464 304h-8c-4.425781 0-8-3.574219-8-8s3.574219-8 8-8h8c4.425781 0 8 3.574219 8 8s-3.574219 8-8 8zm0 0"/><path d="m464 336h-8c-4.425781 0-8-3.574219-8-8s3.574219-8 8-8h8c4.425781 0 8 3.574219 8 8s-3.574219 8-8 8zm0 0"/><path d="m464 368h-8c-4.425781 0-8-3.574219-8-8s3.574219-8 8-8h8c4.425781 0 8 3.574219 8 8s-3.574219 8-8 8zm0 0"/><path d="m408 400c-4.425781 0-8-3.574219-8-8v-24c0-4.425781 3.574219-8 8-8s8 3.574219 8 8v24c0 4.425781-3.574219 8-8 8zm0 0"/><path d="m360 400c-4.425781 0-8-3.574219-8-8v-48c0-4.425781 3.574219-8 8-8s8 3.574219 8 8v48c0 4.425781-3.574219 8-8 8zm0 0"/><path d="m312 400c-4.425781 0-8-3.574219-8-8v-24c0-4.425781 3.574219-8 8-8s8 3.574219 8 8v24c0 4.425781-3.574219 8-8 8zm0 0"/><path d="m264 400c-4.425781 0-8-3.574219-8-8v-48c0-4.425781 3.574219-8 8-8s8 3.574219 8 8v48c0 4.425781-3.574219 8-8 8zm0 0"/><path d="m216 400c-4.425781 0-8-3.574219-8-8v-24c0-4.425781 3.574219-8 8-8s8 3.574219 8 8v24c0 4.425781-3.574219 8-8 8zm0 0"/><path d="m168 400c-4.425781 0-8-3.574219-8-8v-48c0-4.425781 3.574219-8 8-8s8 3.574219 8 8v48c0 4.425781-3.574219 8-8 8zm0 0"/><path d="m120 400c-4.425781 0-8-3.574219-8-8v-24c0-4.425781 3.574219-8 8-8s8 3.574219 8 8v24c0 4.425781-3.574219 8-8 8zm0 0"/></svg>