<?xml version="1.0" encoding="iso-8859-1"?>
<!-- Generator: Adobe Illustrator 19.0.0, SVG Export Plug-In . SVG Version: 6.00 Build 0)  -->
<svg version="1.1" id="Capa_1" xmlns="http://www.w3.org/2000/svg" xmlns:xlink="http://www.w3.org/1999/xlink" x="0px" y="0px"
	 viewBox="0 0 512 512" style="enable-background:new 0 0 512 512;" xml:space="preserve">
<path style="fill:#60C28E;" d="M410.493,416.766l-33.243,76.232c-7.234,16.59-26.885,23.742-43.091,15.684l-74.467-37.029
	c-20.172-10.031-35.719-27.43-43.424-48.6l-86.036-236.38l196.251-71.429l86.035,236.38
	C420.224,372.794,419.499,396.115,410.493,416.766z"/>
<path style="fill:#59B382;" d="M177.78,169.367l-47.548,17.306l86.035,236.38c7.705,21.17,23.251,38.57,43.424,48.6l74.467,37.029
	c16.206,8.058,35.857,0.906,43.091-15.684l1.616-3.706C263.62,441.28,198.406,294.656,177.78,169.367z"/>
<rect x="237.144" y="143.276" transform="matrix(-0.9397 0.342 -0.342 -0.9397 620.0941 432.1593)" style="fill:#80D3AE;" width="69.61" height="254.94"/>
<rect x="112.572" y="86.527" transform="matrix(-0.9397 0.342 -0.342 -0.9397 461.8635 158.0705)" style="fill:#FADA6D;" width="208.85" height="66.45"/>
<path style="fill:#EA7786;" d="M303.757,52.804l-196.251,71.429L96.181,93.117c-6.224-17.099,2.593-36.006,19.692-42.229
	L250.202,1.996c17.099-6.224,36.006,2.593,42.229,19.692L303.757,52.804z"/>
<path style="fill:#F5E6AB;" d="M403.088,325.713l-10.678,15.673c-4.661,6.841-13.172,9.939-21.139,7.694l-19.44-5.477
	c-7.968-2.245-16.478,0.853-21.139,7.694l-11.371,16.691c-4.661,6.841-13.172,9.939-21.139,7.694l-19.44-5.477
	c-7.968-2.245-16.479,0.853-21.139,7.694l-11.371,16.691c-4.661,6.841-13.172,9.939-21.139,7.694l-18.255-5.143l9.431,25.91
	c7.705,21.17,23.252,38.57,43.424,48.6l74.467,37.029c16.206,8.058,35.856,0.906,43.091-15.684l33.244-76.232
	c9.005-20.651,9.73-43.972,2.025-65.142L403.088,325.713z"/>
<path style="fill:#FADA6D;" d="M256.122,380.073l-9.891,14.518c-4.661,6.841-13.172,9.939-21.139,7.694l-18.255-5.143l9.431,25.91
	c7.705,21.17,23.251,38.57,43.424,48.6l74.467,37.029c16.206,8.058,35.857,0.906,43.091-15.684l1.616-3.706
	C328.575,468.341,287.81,428.616,256.122,380.073z"/>
<path style="fill:#495059;" d="M340.451,458.931c-18.814,6.848-34.965,17.135-47.42,29.3l41.128,20.451
	c16.206,8.058,35.856,0.906,43.091-15.684l18.361-42.103C378.25,449.582,359.265,452.083,340.451,458.931z"/>
<path style="fill:#41464F;" d="M331.729,462.445c-15.104,6.647-28.215,15.547-38.698,25.786l41.128,20.451
	c16.206,8.058,35.857,0.906,43.091-15.684l1.616-3.706C362.1,482.307,346.394,473.235,331.729,462.445z"/>
<path style="fill:#F2C55A;" d="M170.817,101.19l-63.31,23.043l22.726,62.439l47.548-17.306
	C173.867,145.6,171.558,122.602,170.817,101.19z"/>
<rect x="209.48" y="15.312" transform="matrix(-0.342 -0.9397 0.9397 -0.342 178.6712 364.5832)" style="fill:#495059;" width="15" height="208.85"/>
<path style="fill:#E35968;" d="M175.458,29.201l-59.585,21.687c-17.099,6.224-25.915,25.13-19.692,42.229l11.325,31.116
	l63.31-23.043C169.879,74.098,171.453,49.552,175.458,29.201z"/>
<g>
</g>
<g>
</g>
<g>
</g>
<g>
</g>
<g>
</g>
<g>
</g>
<g>
</g>
<g>
</g>
<g>
</g>
<g>
</g>
<g>
</g>
<g>
</g>
<g>
</g>
<g>
</g>
<g>
</g>
</svg>
