<?xml version="1.0" encoding="iso-8859-1"?>
<!-- Generator: Adobe Illustrator 19.0.0, SVG Export Plug-In . SVG Version: 6.00 Build 0)  -->
<svg version="1.1" id="Capa_1" xmlns="http://www.w3.org/2000/svg" xmlns:xlink="http://www.w3.org/1999/xlink" x="0px" y="0px"
	 viewBox="0 0 512.001 512.001" style="enable-background:new 0 0 512.001 512.001;" xml:space="preserve">
<g>
	<polygon style="fill:#FD4A4A;" points="65.432,133.066 149.069,49.429 109.637,9.999 67.819,51.818 26.001,93.634 	"/>
	
		<rect x="63.316" y="84.947" transform="matrix(-0.7071 0.7071 -0.7071 -0.7071 284.3174 95.1362)" style="fill:#00D8CE;" width="118.279" height="43.01"/>
	<path style="fill:#FFCE34;" d="M179.481,79.841l-83.637,83.637l76.519,76.521l23.141,23.139L256,323.634l108.9,108.9l63.936,19.779
		c2.877-9.295,7.975-17.746,14.853-24.627c6.879-6.879,15.332-11.977,24.627-14.852l-19.781-63.938L339.637,239.999L256,156.362
		L179.481,79.841z"/>
	<path style="fill:#3C9FD7;" d="M468.317,412.835c-9.295,2.875-17.748,7.973-24.627,14.852
		c-6.879,6.881-11.977,15.332-14.853,24.627L486.001,470L468.317,412.835z"/>
</g>
<path d="M495.553,467.044L495.553,467.044c-0.004-0.013,0.008,0.025,0.004,0.013C495.553,467.044,495.557,467.057,495.553,467.044
	l-37.465-121.102c-0.48-1.554-1.332-2.966-2.481-4.116L116.709,2.928c-0.007-0.007,0.014,0.014,0.007,0.007
	c-0.007-0.007,0,0-0.007-0.007l0,0c-3.906-3.904-10.236-3.904-14.143,0L18.929,86.563C17.054,88.438,16,90.982,16,93.634
	s1.054,5.195,2.929,7.071l338.898,338.898c1.15,1.15,2.563,2.001,4.116,2.482l121.098,37.466c0.004,0.001,0,0,0.004,0.001
	c0.006,0.002-0.005-0.001,0,0l0,0c0.972,0.301,1.967,0.447,2.954,0.447c2.613,0,5.168-1.025,7.072-2.929
	C495.695,474.448,496.65,470.588,495.553,467.044z M79.575,133.066l69.494-69.494l16.268,16.27l-69.492,69.494L79.575,133.066z
	 M109.637,24.141l25.289,25.288l-69.494,69.494L40.143,93.634L109.637,24.141z M109.987,163.478l69.492-69.494l260.235,260.234
	l16.31,52.718c-4.161,1.981-8.123,4.37-11.816,7.126l-57.814-57.813c-3.906-3.904-10.236-3.904-14.143,0
	c-3.905,3.905-3.905,10.237,0,14.143l57.813,57.813c-2.756,3.693-5.145,7.656-7.127,11.817l-52.719-16.311L109.987,163.478z
	 M442.339,446.024c2.266-4.123,5.093-7.936,8.423-11.266c3.33-3.331,7.142-6.156,11.265-8.421l8.818,28.506L442.339,446.024z"/>
<path d="M367.166,337.02l-0.315-0.315c-3.906-3.904-10.236-3.904-14.142,0c-3.905,3.905-3.905,10.237,0,14.143l0.314,0.314
	c1.953,1.952,4.512,2.929,7.071,2.929c2.56,0,5.118-0.977,7.071-2.929C371.071,347.257,371.071,340.925,367.166,337.02z"/>
<path d="M453.836,492.001h-40c-5.522,0-10,4.478-10,10s4.478,10,10,10h40c5.522,0,10-4.478,10-10S459.358,492.001,453.836,492.001z"
	/>
<path d="M353.835,492.001h-40c-5.522,0-10,4.478-10,10s4.478,10,10,10h40c5.523,0,10-4.478,10-10S359.357,492.001,353.835,492.001z"
	/>
<path d="M172.268,492.001h-0.475c-5.522,0-10,4.478-10,10s4.478,10,10,10h0.475c5.522,0,10-4.478,10-10
	S177.791,492.001,172.268,492.001z"/>
<path d="M260.956,492.001h-59.604c-5.523,0-10,4.478-10,10s4.477,10,10,10h59.604c5.522,0,10-4.478,10-10
	S266.478,492.001,260.956,492.001z"/>
<g>
</g>
<g>
</g>
<g>
</g>
<g>
</g>
<g>
</g>
<g>
</g>
<g>
</g>
<g>
</g>
<g>
</g>
<g>
</g>
<g>
</g>
<g>
</g>
<g>
</g>
<g>
</g>
<g>
</g>
</svg>
